<svg version="1.2" xmlns="http://www.w3.org/2000/svg" viewBox="0 0 1552 253" width="1552" height="253"><style></style><path  d="m128.3 117.6q-0.7-0.3-1.1-0.9-0.5-0.6-0.6-1.3-0.1-0.7 0.1-1.4 0.2-0.7 0.7-1.2c3.1-3 5.9-6.3 8.3-9.8 2.5-3.6 4.5-7.3 6.1-11.3 1.7-4 2.9-8.1 3.7-12.3 0.8-4.3 1.1-8.6 1-12.9-0.1-4.2 3.9-65.5-74.2-65.5q-9.2-0.2-18.5 0.8-9.2 1-18.2 3.1-9.1 2.2-17.8 5.5-8.6 3.4-16.8 7.8v3.6c1.9 0.7 3.7 1.7 5.3 2.9 1.6 1.2 3.1 2.6 4.3 4.3 1.1 1.6 2.1 3.4 2.7 5.3 0.7 1.9 1 3.9 1.1 5.9v185.6q0.2 2.8-0.4 5.5-0.6 2.7-1.9 5.2-1.3 2.5-3.2 4.5-1.9 2-4.3 3.4v4.6h92.9c38.8 0 70.3-25.2 70.3-68.8 0.2-6.6-0.5-13.1-2.2-19.5-1.8-6.3-4.4-12.4-7.9-17.9-3.5-5.6-7.8-10.6-12.8-14.8-5-4.3-10.6-7.8-16.6-10.4zm-79.5-87.1q0-1.4 0.5-2.7 0.4-1.2 1.3-2.3 0.9-1 2.1-1.6 1.2-0.7 2.6-0.9 1.9-0.2 3.9-0.5 1.9-0.2 3.9-0.3 1.9-0.2 3.9-0.3 2 0 3.9-0.1c27 0 44.1 16.8 44.1 45.8 0 28.5-18.4 43.8-45.4 43.8h-16.3q-0.9 0-1.7-0.4-0.9-0.3-1.5-0.9-0.6-0.7-1-1.5-0.3-0.8-0.3-1.7zm32.5 199.7l0.2 0.2h-0.2-26.5q-1.2 0-2.3-0.5-1.1-0.4-1.9-1.3-0.9-0.8-1.3-1.9-0.5-1.1-0.5-2.3v-89.8q0-0.8 0.3-1.7 0.4-0.8 1-1.4 0.6-0.7 1.5-1 0.8-0.3 1.7-0.3h28c29.5 0 49 18.1 49 50 0 31.1-19.5 50-49 50z"/><path  d="m558.5 225.8l-59.6-85.3q-0.4-0.6-0.5-1.3-0.1-0.7 0.1-1.4 0.2-0.6 0.7-1.1 0.5-0.5 1.2-0.8c6.6-2.2 12.9-5.4 18.5-9.5 5.6-4.2 10.5-9.2 14.6-14.8 4.1-5.7 7.2-12 9.3-18.6 2.2-6.7 3.2-13.6 3.2-20.6 0-7 4.3-71.4-80.8-71.4q-9.3-0.2-18.5 0.8-9.3 0.9-18.3 2.8-9.1 2-17.9 5-8.9 3-17.3 6.9v3.7c1.9 0.7 3.7 1.6 5.4 2.8 1.6 1.2 3 2.7 4.2 4.3 1.2 1.6 2.1 3.4 2.8 5.3 0.6 2 1 4 1 6v187.1q0.2 2.7-0.4 5.5-0.5 2.7-1.8 5.2-1.3 2.4-3.3 4.4-1.9 2.1-4.3 3.5v4.5h51.6v-4.5q-2.1-1.6-3.6-3.7-1.6-2.1-2.6-4.5-1.1-2.5-1.4-5.1-0.4-2.6-0.2-5.2v-81.1q0-0.9 0.4-1.7 0.3-0.8 1-1.5 0.6-0.6 1.4-0.9 0.8-0.4 1.7-0.4h10.5q0.9 0 1.8 0.2 0.9 0.3 1.7 0.7 0.8 0.4 1.5 1 0.6 0.6 1.2 1.3l72.3 103.5q0.3 0.4 0.8 0.8 0.4 0.3 0.8 0.6 0.5 0.2 1 0.4 0.6 0.1 1.1 0.1h40.7v-4.5q-3-1.7-5.8-3.7-2.8-2-5.3-4.4-2.5-2.3-4.7-4.9-2.3-2.6-4.2-5.5zm-100-104.2h-13.4q-0.9 0-1.7-0.3-0.8-0.4-1.4-1-0.7-0.7-1-1.5-0.4-0.8-0.4-1.7v-85.4q0-1.4 0.5-2.7 0.5-1.2 1.4-2.3 0.9-1 2.1-1.6 1.2-0.7 2.5-0.8 1.9-0.3 3.7-0.5 1.8-0.1 3.7-0.3 1.8-0.1 3.7-0.2 1.8 0 3.7-0.1c29 0 47.3 18 47.3 49.2 0 34.9-20.1 49.2-50.7 49.2z"/><path  d="m725.4 117.6q-0.7-0.3-1.2-0.9-0.4-0.6-0.5-1.3-0.2-0.7 0.1-1.4 0.2-0.7 0.7-1.2c3.1-3 5.9-6.3 8.3-9.8 2.4-3.6 4.5-7.3 6.1-11.3 1.7-4 2.9-8.1 3.7-12.3 0.7-4.3 1.1-8.6 1-12.9-0.1-4.2 3.9-65.5-74.2-65.5q-9.3-0.2-18.5 0.8-9.2 1-18.3 3.1-9 2.2-17.7 5.5-8.6 3.4-16.8 7.8v3.6c1.9 0.7 3.7 1.7 5.3 2.9 1.6 1.2 3.1 2.6 4.3 4.3 1.1 1.6 2.1 3.4 2.7 5.3 0.7 1.9 1 3.9 1.1 5.9v185.6q0.2 2.8-0.4 5.5-0.6 2.7-1.9 5.2-1.3 2.5-3.2 4.5-1.9 2-4.3 3.4v4.6h92.9c38.8 0 70.2-25.2 70.2-68.8 0.3-6.6-0.5-13.1-2.2-19.5-1.7-6.3-4.3-12.4-7.8-17.9-3.5-5.6-7.8-10.6-12.8-14.8-5-4.3-10.6-7.8-16.6-10.4zm-79.5-87.1q0-1.4 0.5-2.7 0.4-1.2 1.3-2.3 0.9-1 2.1-1.6 1.2-0.7 2.6-0.9 1.9-0.2 3.9-0.5 1.9-0.2 3.9-0.3 1.9-0.2 3.9-0.3 1.9 0 3.9-0.1c27 0 44.1 16.8 44.1 45.8 0 28.5-18.4 43.8-45.4 43.8h-16.4q-0.9 0-1.7-0.4-0.8-0.3-1.4-0.9-0.7-0.7-1-1.5-0.4-0.8-0.4-1.7zm32.6 199.7l0.1 0.2h-0.1-26.6q-1.2 0-2.3-0.5-1.1-0.4-1.9-1.3-0.9-0.8-1.3-1.9-0.5-1.1-0.5-2.3v-89.8q0-0.8 0.4-1.7 0.3-0.8 0.9-1.4 0.7-0.7 1.5-1 0.8-0.3 1.7-0.3h28c29.5 0 48.9 18.1 48.9 50 0 31.1-19.4 50-48.8 50z"/><path  d="m323.1 4.7v4.5q2 1.7 3.6 3.7 1.5 2.1 2.5 4.5 1.1 2.4 1.5 5 0.3 2.6 0.1 5.1v152c0 35.1-15.2 51-47.7 51-32.4 0-46.7-16.6-46.7-55.4v-147.4q-0.3-2.6 0.1-5.2 0.3-2.6 1.4-5 1-2.4 2.6-4.5 1.5-2.1 3.6-3.8v-4.5h-51.6v4.6q2.4 1.4 4.4 3.4 1.9 2 3.2 4.5 1.3 2.4 1.9 5.2 0.5 2.7 0.4 5.5v153c0 45.6 30.6 71.4 78.7 71.4 47.6 0 73.3-25.8 73.3-71.4v-153q-0.2-2.8 0.4-5.5 0.6-2.8 1.9-5.2 1.3-2.5 3.2-4.5 1.9-2 4.3-3.4v-4.6z"/><path  d="m1141.7 225.8l-59.6-85.3q-0.4-0.6-0.5-1.3-0.1-0.7 0.1-1.4 0.2-0.6 0.7-1.1 0.5-0.5 1.2-0.8c6.6-2.2 12.9-5.4 18.5-9.5 5.6-4.2 10.5-9.2 14.6-14.8 4.1-5.7 7.2-12 9.3-18.6 2.2-6.7 3.2-13.6 3.2-20.6 0-7 4.3-71.4-80.8-71.4q-9.3-0.1-18.5 0.8-9.3 0.9-18.4 2.8-9.1 2-17.9 5-8.8 3-17.2 6.9v3.7c1.9 0.7 3.7 1.6 5.3 2.8 1.7 1.2 3.1 2.7 4.3 4.3 1.2 1.6 2.1 3.4 2.8 5.3 0.6 2 1 4 1 6v187.1q0.2 2.7-0.4 5.5-0.5 2.7-1.8 5.2-1.3 2.4-3.3 4.4-1.9 2.1-4.3 3.5v4.5h51.6v-4.5q-2.1-1.6-3.7-3.7-1.5-2.1-2.6-4.5-1-2.5-1.4-5.1-0.3-2.6-0.1-5.2v-81.1q0-0.9 0.4-1.7 0.3-0.8 0.9-1.5 0.7-0.6 1.5-0.9 0.8-0.4 1.7-0.4h10.5q0.9 0 1.8 0.2 0.9 0.3 1.7 0.7 0.8 0.4 1.5 1 0.6 0.6 1.2 1.3l72.3 103.5q0.3 0.4 0.7 0.8 0.5 0.3 0.9 0.6 0.5 0.2 1 0.4 0.6 0.1 1.1 0.1h40.7v-4.5q-3-1.7-5.8-3.7-2.8-2-5.3-4.4-2.5-2.3-4.7-4.9-2.3-2.6-4.2-5.5zm-100-104.2h-13.4q-0.9 0-1.7-0.3-0.8-0.4-1.4-1-0.7-0.7-1-1.5-0.4-0.8-0.4-1.7v-85.4q0-1.4 0.5-2.7 0.5-1.2 1.4-2.3 0.9-1 2.1-1.6 1.2-0.7 2.5-0.8 1.8-0.3 3.7-0.5 1.8-0.1 3.7-0.3 1.8-0.1 3.7-0.2 1.8 0 3.7-0.1c29 0 47.3 18 47.3 49.2 0 34.9-20.1 49.2-50.7 49.2z"/><path  d="m1347.6 225.8l-59.7-85.3q-0.4-0.6-0.5-1.3-0.1-0.7 0.1-1.4 0.3-0.6 0.8-1.1 0.5-0.5 1.1-0.8c6.7-2.2 12.9-5.4 18.5-9.5 5.6-4.2 10.6-9.2 14.6-14.8 4.1-5.7 7.3-12 9.4-18.6 2.1-6.7 3.2-13.6 3.1-20.6 0 0 4.3-71.4-80.7-71.4q-9.3-0.1-18.6 0.8-9.2 0.9-18.3 2.8-9.1 2-17.9 5-8.8 3-17.2 6.9v3.7c1.9 0.7 3.7 1.6 5.3 2.8 1.6 1.2 3 2.7 4.2 4.3 1.2 1.6 2.2 3.4 2.8 5.3 0.7 2 1 4 1.1 6v187.1q0.2 2.7-0.4 5.5-0.6 2.7-1.9 5.2-1.3 2.4-3.2 4.4-1.9 2.1-4.3 3.5v4.5h51.5v-4.5q-2-1.6-3.6-3.7-1.6-2.1-2.6-4.5-1-2.5-1.4-5.1-0.4-2.6-0.1-5.2v-81.1q0-0.9 0.3-1.7 0.4-0.8 1-1.5 0.6-0.6 1.5-0.9 0.8-0.4 1.7-0.4h10.5q0.9 0 1.7 0.2 0.9 0.3 1.7 0.7 0.8 0.4 1.5 1 0.7 0.6 1.2 1.3l72.4 103.5q0.3 0.4 0.7 0.8 0.4 0.3 0.9 0.6 0.5 0.2 1 0.4 0.5 0.1 1 0.1h40.7v-4.5q-3-1.7-5.8-3.7-2.8-2-5.3-4.4-2.5-2.3-4.7-4.9-2.2-2.6-4.1-5.5zm-100-104.2h-13.4q-0.9 0-1.8-0.3-0.8-0.4-1.4-1-0.6-0.7-1-1.5-0.3-0.8-0.3-1.7v-85.4q0-1.4 0.4-2.7 0.5-1.2 1.4-2.3 0.9-1 2.1-1.6 1.2-0.7 2.5-0.8 1.9-0.3 3.7-0.5 1.9-0.1 3.7-0.3 1.8-0.1 3.7-0.2 1.8 0 3.7-0.1c29 0 47.3 18 47.3 49.2 0 34.9-20.1 49.2-50.6 49.2z"/><path  d="m1505 4.6v4.5c0 0 9.7 3.2 1.4 18.1l-46.2 83.4q-0.4 0.7-1.1 1.1-0.7 0.4-1.5 0.4-0.8 0-1.5-0.4-0.7-0.4-1.1-1.1l-46.3-83.4c-8.3-14.9 1.4-18.1 1.4-18.1v-4.5h-60.4v4.5q3.2 1.4 6.1 3.3 2.9 1.9 5.5 4.2 2.5 2.4 4.6 5.1 2.1 2.8 3.8 5.9l62.1 112.1q0.4 0.7 0.8 1.5 0.3 0.8 0.5 1.6 0.2 0.9 0.3 1.7 0.1 0.9 0.1 1.7v79.5q0.2 2.7-0.4 5.5-0.6 2.7-1.9 5.2-1.3 2.4-3.2 4.4-1.9 2.1-4.3 3.5v4.5h53.6v-4.5q-2.4-1.4-4.3-3.5-1.9-2-3.2-4.4-1.3-2.5-1.9-5.2-0.6-2.8-0.4-5.5v-79.5q0-0.8 0.1-1.7 0.1-0.8 0.4-1.7 0.2-0.8 0.5-1.6 0.3-0.8 0.7-1.5l62.2-112.1q1.6-3.1 3.7-5.9 2.1-2.7 4.7-5.1 2.5-2.3 5.4-4.2 2.9-1.9 6.1-3.3v-4.5z"/><path  d="m923 230.3h-73.6q-1.2 0-2.3-0.4-1.1-0.5-2-1.3-0.8-0.9-1.3-2-0.4-1.1-0.4-2.3v-89q0-0.9 0.3-1.7 0.4-0.9 1-1.5 0.6-0.6 1.4-1 0.9-0.3 1.8-0.3h40.1q2.6-0.3 5.2 0.1 2.7 0.4 5.1 1.5 2.4 1 4.5 2.6 2.1 1.6 3.7 3.7h4.5v-34.4h-4.5q-1.6 2.1-3.7 3.7-2.1 1.6-4.5 2.6-2.4 1-5.1 1.4-2.6 0.4-5.2 0.2h-40.1q-0.9 0-1.8-0.4-0.8-0.3-1.4-1-0.6-0.6-1-1.4-0.3-0.8-0.3-1.7v-78.4q0-1.2 0.4-2.3 0.5-1.1 1.3-1.9 0.9-0.8 2-1.3 1.1-0.5 2.3-0.5h63.5q2.7-0.1 5.5 0.4 2.7 0.6 5.1 1.9 2.5 1.3 4.5 3.2 2 2 3.4 4.4h4.6v-28.5h-136.4v4.6q2.4 1.4 4.3 3.4 1.9 2 3.2 4.5 1.3 2.4 1.9 5.2 0.6 2.7 0.4 5.5v197.9q0.2 2.8-0.4 5.5-0.6 2.7-1.9 5.2-1.3 2.4-3.2 4.4-1.9 2.1-4.3 3.5v4.5h146.6v-28.4h-4.6q-1.4 2.4-3.4 4.3-2 1.9-4.5 3.2-2.4 1.3-5.1 1.9-2.8 0.6-5.6 0.4z"/></svg>