<?xml version="1.0" encoding="UTF-8" standalone="no"?>
<svg
   width="121.4976"
   height="18.284178"
   viewBox="0 0 121.4976 18.284178"
   version="1.1"
   id="svg6"
   sodipodi:docname="Lacoste_wordmark.svg"
   inkscape:version="1.4 (86a8ad7, 2024-10-11)"
   xmlns:inkscape="http://www.inkscape.org/namespaces/inkscape"
   xmlns:sodipodi="http://sodipodi.sourceforge.net/DTD/sodipodi-0.dtd"
   xmlns="http://www.w3.org/2000/svg"
   xmlns:svg="http://www.w3.org/2000/svg">
  <defs
     id="defs6" />
  <sodipodi:namedview
     id="namedview6"
     pagecolor="#ffffff"
     bordercolor="#000000"
     borderopacity="0.25"
     inkscape:showpageshadow="2"
     inkscape:pageopacity="0.0"
     inkscape:pagecheckerboard="0"
     inkscape:deskcolor="#d1d1d1"
     inkscape:zoom="5.1381161"
     inkscape:cx="44.568865"
     inkscape:cy="5.9360278"
     inkscape:window-width="1920"
     inkscape:window-height="1001"
     inkscape:window-x="-9"
     inkscape:window-y="-9"
     inkscape:window-maximized="1"
     inkscape:current-layer="g2" />
  <g
     stroke="none"
     stroke-width="1"
     fill="none"
     fill-rule="evenodd"
     id="g6"
     transform="translate(-0.00799828,-31.547722)">
    <g
       transform="translate(-979,-829)"
       id="g5">
      <g
         transform="translate(400,809)"
         id="g4">
        <g
           transform="translate(0,20)"
           id="g3">
          <g
             transform="translate(579)"
             id="g2">
            <path
               d="m 23.939535,34.981582 3.549786,7.804114 H 20.611433 Z M 3.1141007,31.904683 H 0.00799828 V 49.474937 H 12.402178 V 46.665759 H 3.1141007 Z m 92.8766823,2.809494 v 14.76076 h 3.106103 v -14.76076 h 6.123404 V 31.904683 H 90.043718 v 2.809494 z M 62.886734,46.71038 c -3.461301,0 -6.079005,-2.631329 -6.079005,-6.020886 0,-3.388924 2.617704,-6.019937 6.079005,-6.019937 3.461302,0 6.079321,2.631013 6.079321,6.019937 0,3.389557 -2.618019,6.020886 -6.079321,6.020886 z M 44.29389,34.669557 c 2.618019,0 4.08227,1.426582 4.925553,2.185126 l 2.174334,-2.140506 c -0.709768,-0.802848 -2.795303,-3.166455 -7.144287,-3.166455 -5.014353,0 -9.451822,3.388924 -9.451822,9.141772 0,5.753164 4.393069,9.142405 9.407422,9.142405 3.860901,0 6.478919,-2.096203 7.321572,-2.854431 l -1.73065,-2.452531 c -1.375452,1.15981 -3.549787,2.185443 -5.546522,2.185443 -3.460987,0 -6.07932,-2.631329 -6.07932,-6.020886 0,-3.388924 2.618333,-6.019937 6.12372,-6.019937 z m 30.441,13.066139 c 0.710084,0.580063 2.840018,2.096203 6.567719,2.096203 3.771471,0 6.833174,-2.051266 6.833174,-5.262342 0,-6.689241 -9.628792,-4.548734 -9.628792,-8.20538 0,-1.025633 0.842968,-1.873101 3.061703,-1.873101 2.662418,0 4.392754,1.204114 5.058123,1.73924 l 1.287596,-2.586708 c -0.799198,-0.757912 -3.239617,-2.095886 -6.345719,-2.095886 -4.659469,0 -6.567404,2.631329 -6.567404,5.217721 0,6.064874 9.629106,4.325949 9.629106,7.938291 0,1.516139 -1.508651,2.184494 -3.239302,2.184494 -2.618018,0 -4.703868,-1.158861 -5.591236,-1.828165 z m 46.50463,-15.831013 h -13.26801 v 17.570254 h 13.53409 v -2.809178 h -10.42767 v -4.593354 h 8.87462 v -2.80981 h -8.87462 v -4.548418 h 10.16159 z M 30.551024,49.474937 h 3.660629 L 25.803071,31.904683 h -3.505702 l -7.765256,17.570254 h 3.239302 l 1.686251,-3.968988 h 9.274222 z m 32.33571,0.356962 c 5.014353,0 9.451822,-3.389241 9.451822,-9.142405 0,-5.752848 -4.437469,-9.141772 -9.451822,-9.141772 -5.014037,0 -9.451821,3.388924 -9.451821,9.141772 0,5.753164 4.437784,9.142405 9.451821,9.142405 z"
               id="Fill-1"
               fill="#000000" />
          </g>
        </g>
      </g>
    </g>
  </g>
</svg>
