<svg version="1.1" id="Layer_1" x="0" y="0" width="99" height="11" style="enable-background:new 0 0 99 11" xml:space="preserve" xmlns:xlink="http://www.w3.org/1999/xlink" xmlns="http://www.w3.org/2000/svg"><defs id="defs47"><clipPath id="SVGID_2_"><use xlink:href="#SVGID_1_" style="overflow:visible" id="use7"/></clipPath><defs id="defs5"><path id="SVGID_1_" d="M-11.76-12.162H99.163V23.24H-11.76z"/></defs></defs><style type="text/css" id="style2">.st0{clip-path:url(#SVGID_2_);fill:#fff}</style><g id="g936"><path class="st0" d="M61.357 1.198a4.435 4.435 0 1 0 .001 8.87 4.435 4.435 0 0 0-.001-8.87m0 7.993a3.562 3.562 0 0 1-3.558-3.558 3.563 3.563 0 0 1 3.558-3.559 3.563 3.563 0 0 1 3.558 3.559 3.562 3.562 0 0 1-3.558 3.558" clip-path="url(#SVGID_2_)" id="path10" style="fill:#ff5800;fill-opacity:1"/><path class="st0" d="M63.249 4.765c0-.759-.617-1.376-1.376-1.376h-1.94v4.442h.751V6.142h.768l.838 1.689h.838l-.866-1.746c.57-.168.987-.696.987-1.32m-1.376.626h-1.189V4.14h1.189a.626.626 0 0 1 0 1.251" clip-path="url(#SVGID_2_)" id="path12" style="fill:#ff5800;fill-opacity:1"/><path class="st0" d="M6.439 6.138a2.223 2.223 0 0 0-.499-.505 4.113 4.113 0 0 0-.807-.452l-1.335-.577c-.37-.153-.61-.319-.722-.5a1.233 1.233 0 0 1-.169-.667c0-.129.014-.253.042-.374a.755.755 0 0 1 .157-.318.806.806 0 0 1 .307-.223c.128-.056.288-.084.481-.084.337 0 .577.11.722.331.144.22.216.535.216.944h1.661v-.24c0-.41-.066-.76-.199-1.053a1.9 1.9 0 0 0-.553-.722 2.221 2.221 0 0 0-.842-.409 4.203 4.203 0 0 0-1.065-.127c-.827 0-1.476.209-1.95.626-.473.417-.71 1.051-.71 1.901 0 .353.044.664.133.933.088.269.226.505.415.71.188.204.423.383.704.535.28.153.614.293.999.421.288.097.531.191.728.283.196.092.355.195.475.307.12.113.206.239.259.379.052.141.078.307.078.499 0 .361-.107.628-.319.801a1.11 1.11 0 0 1-.716.258c-.225 0-.411-.032-.56-.096a.89.89 0 0 1-.355-.265.953.953 0 0 1-.18-.415 2.87 2.87 0 0 1-.048-.547v-.253H1.054v.349c0 .794.211 1.404.632 1.829.421.425 1.121.638 2.1.638.938 0 1.67-.207 2.196-.62.525-.413.788-1.073.788-1.979 0-.265-.024-.506-.072-.722a1.683 1.683 0 0 0-.259-.596" clip-path="url(#SVGID_2_)" id="path14" style="fill:#000"/><path class="st0" d="M11.884 7.323c0 .217-.014.415-.042.596a1.35 1.35 0 0 1-.156.469.861.861 0 0 1-.307.313.987.987 0 0 1-.506.114.99.99 0 0 1-.499-.114.84.84 0 0 1-.313-.313 1.35 1.35 0 0 1-.156-.469 3.776 3.776 0 0 1-.043-.596V1.33H8.13v5.993c0 .578.076 1.047.228 1.408.153.361.357.64.614.836.257.197.549.327.878.391.329.064.67.097 1.023.097.353 0 .694-.037 1.023-.109.329-.072.622-.212.878-.421.257-.208.462-.491.614-.848.153-.357.229-.808.229-1.354V1.33h-1.733z" clip-path="url(#SVGID_2_)" id="path16" style="fill:#000"/><path class="st0" d="M20.066 2.136a2.026 2.026 0 0 0-.728-.583c-.3-.149-.672-.223-1.113-.223h-3.032v8.592h1.733v-3.43h.926c.409 0 .782-.052 1.119-.156.337-.104.624-.261.861-.469a2.1 2.1 0 0 0 .553-.806c.133-.329.199-.715.199-1.156 0-.32-.04-.635-.121-.944a2.274 2.274 0 0 0-.397-.825m-1.534 2.768c-.213.209-.491.313-.836.313h-.77V2.606h.722c.433 0 .742.112.926.337.185.224.277.553.277.986 0 .442-.106.767-.319.975" clip-path="url(#SVGID_2_)" id="path18" style="fill:#000"/><path class="st0" clip-path="url(#SVGID_2_)" id="polygon20" style="fill:#000" d="M26.601 4.772h-2.888V2.75h3.069V1.331H21.98v8.591h4.922v-1.42h-3.189v-2.31h2.888z"/><path class="st0" d="M34.001 9.357c-.032-.241-.056-.59-.072-1.047l-.024-.632c-.009-.188-.02-.363-.036-.524-.049-.481-.173-.83-.373-1.046-.201-.217-.518-.357-.951-.422v-.024c.489-.104.85-.338 1.083-.704.232-.365.349-.836.349-1.414 0-.746-.201-1.301-.602-1.666-.401-.365-.962-.548-1.684-.548H28.49v8.592h1.732V6.288h.927c.361 0 .618.096.77.289.152.192.237.457.253.794l.048 1.649c.008.168.024.331.048.487.024.157.08.295.168.415h1.878V9.85c-.161-.088-.265-.253-.313-.493M31.907 4.79c-.225.197-.545.295-.963.295h-.722V2.606h.819c.802 0 1.203.397 1.203 1.191 0 .466-.112.796-.337.993" clip-path="url(#SVGID_2_)" id="path22" style="fill:#000"/><path class="st0" d="M40.842 2.467a2.103 2.103 0 0 0-.861-.842c-.369-.196-.854-.295-1.456-.295h-2.84v8.592h2.732c.577 0 1.055-.088 1.432-.265.377-.176.678-.445.902-.806.225-.361.383-.82.476-1.378.092-.557.138-1.213.138-1.967 0-.634-.036-1.208-.108-1.721-.072-.513-.211-.952-.415-1.318m-1.264 4.555c-.036.393-.108.71-.216.951-.109.24-.255.413-.44.517-.184.104-.429.157-.734.157h-.77V2.606h.734c.329 0 .592.062.788.186.197.125.345.309.445.554.101.245.167.551.199.92s.048.799.048 1.288c0 .586-.018 1.075-.054 1.468" clip-path="url(#SVGID_2_)" id="path24" style="fill:#000"/><path class="st0" d="M48.321 9.357c-.032-.241-.057-.59-.073-1.047l-.023-.632a10.34 10.34 0 0 0-.037-.524c-.048-.481-.172-.83-.373-1.046-.2-.217-.517-.357-.95-.422v-.024c.489-.104.85-.338 1.083-.704.232-.365.349-.836.349-1.414 0-.746-.201-1.301-.602-1.666-.401-.365-.963-.548-1.685-.548h-3.2v8.592h1.732V6.288h.927c.361 0 .617.096.77.289.152.192.236.457.253.794l.048 1.649c.008.168.024.331.048.487.024.157.08.295.168.415h1.878V9.85c-.161-.088-.265-.253-.313-.493M46.227 4.79c-.225.197-.546.295-.963.295h-.722V2.606h.818c.803 0 1.204.397 1.204 1.191 0 .466-.113.796-.337.993" clip-path="url(#SVGID_2_)" id="path26" style="fill:#000"/><path class="st0" clip-path="url(#SVGID_2_)" id="polygon28" style="fill:#000" d="M51.185 1.331h-1.949l2.226 5.21v3.382h1.733V6.541l2.226-5.21h-1.878L52.34 4.652h-.024z"/><path class="st0" clip-path="url(#SVGID_2_)" id="rect30" style="fill:#000" d="M88.634 1.807h2.677v.829h-2.677z"/><path class="st0" d="M96.413 8.394v.233c0 .216-.108.324-.324.324h-.905c-.177 0-.266-.086-.266-.257v-.476a24.985 24.985 0 0 0 1.619-.267l.036.269.534-.105a5.769 5.769 0 0 0-.398-1.393l-.496.115c.076.203.143.403.2.6-.216.019-.432.041-.647.066.127-.368.234-.724.324-1.067l-.581-.104c-.095.451-.203.86-.324 1.228a4.076 4.076 0 0 0-.266.029V6.075h1.676V1.807h-2.146l.265-.677-.93-.12-.288.797h-1.623v4.268h.858v.495c0 .724-.226 1.337-.677 1.838a17.646 17.646 0 0 0-.828-2.381l-.696.276c.172.432.321.835.448 1.21a68.66 68.66 0 0 1-1.419.257c.298-.984.536-1.94.714-2.867h1.267v-.876h-3.134v.876h1.057a28.696 28.696 0 0 1-.695 2.991l-.4.057.162.943a31.24 31.24 0 0 0 2.686-.591c.064.248.117.474.162.677l-.457.238.629.705c1.345-.693 2.016-1.81 2.009-3.353v-.495h.531v2.867c0 .565.26.847.781.847h1.486c.521 0 .781-.282.781-.847v-.348zm-3.701-3.081v-.972H93.8v.972zm0-1.696V2.569H93.8v1.048zm3.045-1.048v1.048H94.63V2.569zm0 1.772v.972H94.63v-.972z" clip-path="url(#SVGID_2_)" id="path32" style="fill:#000"/><path class="st0" d="M69.056 9.923h.867v-.372h4.815v.372h.867V5.137h-6.549zm5.682-4.101v.61h-4.815v-.61zm0 1.217v.61h-4.815v-.61zm0 1.218v.61h-4.815v-.61z" clip-path="url(#SVGID_2_)" id="path34" style="fill:#000"/><path class="st0" d="M76.472 4.528V1.331H68.19v3.197zm-.867-2.512v.61h-6.549v-.61zm0 1.218v.609h-6.549v-.609z" clip-path="url(#SVGID_2_)" id="path36" style="fill:#000"/><path class="st0" d="M84.787 7.37h1.734V4.865H84.53v-.781h1.038V3.56c.28.222.591.444.934.666l.619-.752c-1.34-.781-2.226-1.584-2.651-2.397h-.822c-.495.826-1.369 1.638-2.614 2.425l.581.734c.318-.222.619-.448.905-.676v.524h1.134v.781h-2.067V7.37h1.705c-.426.73-1.301 1.347-2.476 1.791l.647.771c1.295-.527 2.181-1.251 2.658-2.172.336.515.663.915.98 1.2.407.375.898.691 1.501.951l.639-.762c-.635-.247-1.247-.566-1.615-.865-.261-.203-.54-.508-.839-.914m-1.133-1.429c0 .241-.026.464-.077.667h-1.152v-.981h1.229zm-.886-2.591a8.858 8.858 0 0 0 1.267-1.438c.305.495.727.975 1.267 1.438zm1.762 2.591v-.314h1.153v.981h-1.201c.032-.216.048-.438.048-.667" clip-path="url(#SVGID_2_)" id="path38" style="fill:#000"/><path class="st0" d="M80.958 6.684a4.058 4.058 0 0 0-.152-.943c-.084-.304-.267-.702-.553-1.191L81 2.169v-.838h-2.814v8.592h.819V2.109h1.231l-.745 2.489c.311.565.51 1 .591 1.305.078.298.114.559.114.781 0 .26-.039.449-.124.562-.078.105-.323.159-.72.169l.618.737c.244-.039.53-.137.68-.259.233-.191.327-.536.308-1.209" clip-path="url(#SVGID_2_)" id="path40" style="fill:#000"/></g></svg>